<svg width="221" height="221" viewBox="0 0 221 221" fill="none" xmlns="http://www.w3.org/2000/svg">
<path d="M144.5 44.2809C150.41 47.3368 155.97 51.2136 161 55.8884M171.5 67.9648C194.264 100.518 187.695 145.555 155.958 170.165C125.949 193.434 83.8562 190.362 57.5 164.468M128 38.084C106.51 32.7863 82.8919 37.0095 64.0422 51.6256C40.8232 69.6297 31.0755 98.5672 36.4292 125.551C37.1969 129.42 38.275 133.249 39.6684 137" stroke="#826550" stroke-width="7" stroke-linecap="round" stroke-linejoin="round"/>
<path fill-rule="evenodd" clip-rule="evenodd" d="M163.663 63.0144C164.077 62.7802 165.741 61.7172 166 61.5002C166.172 62.0126 165.867 62.8979 165.573 63.7476C165.456 64.0868 165.341 64.4203 165.259 64.7222C163.768 70.3067 158.54 78.1869 150.55 86.9127C141.027 97.326 126.575 110.075 109.78 122.892L106.296 125.546L105.728 126.63C102.677 132.552 100.874 141.698 102.142 144.881C102.352 145.389 103.377 146.092 105.744 147.329C110.655 149.883 112.776 151.776 113.954 154.653C114.427 155.821 114.614 156.691 114.692 158.193C114.779 159.841 114.634 161.104 114.129 163.034C113.683 164.743 113.345 165.679 112.533 167.434C109.678 173.63 105.051 177.817 99.5104 179.215C98.739 179.404 97.7153 179.612 97.2265 179.678C93.4649 180.134 89.1048 179.369 85.7998 177.676C83.6806 176.582 82.7121 175.474 81.8996 173.167C80.3612 168.8 80.4204 159.18 82.0204 154.476C82.2561 153.785 82.4026 153.559 83.2929 152.536C83.7894 151.971 84.11 151.499 84.5637 150.692C85.3145 149.381 86.7523 146.277 87.7053 143.943C88.7914 141.274 90.3609 137.05 90.2398 137.085C90.1826 137.098 89.9461 137.27 89.6895 137.469C89.5359 137.593 89.0703 137.966 88.4976 138.425C88.1672 138.69 87.8012 138.983 87.4388 139.274C83.3379 142.541 79.8276 145.624 77.8939 147.654C77.0466 148.542 76.0779 149.842 75.7808 150.473C75.4912 151.109 74.9973 151.591 73.7975 152.395C72.0677 153.556 68.6808 155.121 65.5699 156.194C63.5459 156.895 59.5502 157.819 58.0647 157.931C55.1014 158.163 53.5051 157.73 51.7763 156.245C48.9822 153.858 46.7345 150.133 45.7922 146.313C44.6937 141.914 45.3363 137.566 47.7091 133.206C48.2403 132.234 50.3946 129.376 51.3446 128.383C52.3291 127.36 54.1238 125.814 55.2857 124.981C59.0508 122.301 62.6192 121.377 65.9253 122.202C67.5494 122.614 68.4433 123.05 70.2167 124.303C71.4999 125.214 72.1306 125.731 73.5078 127.022C75.8495 129.221 76.5685 129.763 77.2094 129.826C77.9378 129.899 80.1224 129.347 81.5433 128.737C86.8373 126.453 92.312 122.386 95.1464 118.626C96.439 116.911 96.966 115.74 96.9513 114.594C96.9448 113.973 96.9633 113.917 97.3496 113.452C97.7081 113.008 97.8478 112.665 98.6697 110.315C105.232 91.423 112.257 74.9393 118.822 63.0662C124.585 52.6339 130.115 45.4713 135.223 41.8429L135.766 41.4536L138.5 39.5001L137.552 42.7999L137.365 43.4573C137.256 43.823 136.355 46.5613 135.352 49.5449C132.221 58.894 122.55 87.5303 120.149 94.5579C119.838 95.4581 119.599 96.2163 119.622 96.2334C119.644 96.2505 126.878 90.7787 135.701 84.0813C158.469 66.8028 162.975 63.4067 163.663 63.0144ZM106.216 166.383C108.676 161.655 108.721 156.857 106.331 153.935C105.74 153.223 104.667 152.316 103.89 151.898C103.187 151.509 101.712 150.929 100.601 150.61C97.81 149.809 94.5267 150.905 91.5178 153.637C90.7883 154.306 90.455 154.685 89.5066 155.959C88.5102 157.281 88.2905 157.619 87.7981 158.635C85.5715 163.273 85.839 167.705 88.5596 170.96C89.3365 171.882 91.2738 173.342 92.23 173.727C95.9489 175.186 99.9902 173.918 103.535 170.175C104.355 169.309 105.642 167.491 106.216 166.383ZM73.3397 135.495C73.0299 134.127 72.0892 132.619 70.5119 130.996C70.1268 130.594 69.6224 130.129 69.3886 129.967C66.4446 127.874 62.8463 127.893 59.1723 130.012C53.5288 133.279 49.8925 140.118 51.1607 145.08C51.584 146.785 52.4271 148.107 53.8028 149.242C58.1517 152.857 63.8025 152.382 68.4926 148.018C69.6201 146.963 71.1643 144.962 71.8495 143.644C73.3646 140.752 73.8897 137.898 73.3397 135.495ZM104.1 119.347C105.035 117.833 106.021 115.745 104.507 114.811C102.994 113.876 101.568 115.693 100.634 117.207C99.6997 118.72 98.7138 120.809 100.227 121.743C101.741 122.678 103.166 120.86 104.1 119.347Z" fill="#826550"/>
</svg>
