<svg width="153" height="149" viewBox="0 0 153 149" fill="none" xmlns="http://www.w3.org/2000/svg">
<path d="M142.948 11.5311C142.924 8.71021 142.895 5.83621 142.895 2.93307C142.895 1.31436 141.581 0.000520783 139.962 0.000520783C138.344 0.000520783 137.03 1.31436 137.03 2.93307C137.03 47.5358 112.62 53.2599 91.3538 53.2599C89.8701 53.2599 88.4155 53.2365 87.0079 53.1895C86.046 46.3042 81.231 41.0549 75.4481 41.0549C69.7298 41.0549 64.9559 46.1983 63.9412 53.1895C62.4866 53.2365 60.991 53.2657 59.4721 53.2657C37.9067 53.2657 15.6201 47.2716 13.8607 2.81568C13.7961 1.19119 12.3885 -0.0288955 10.8168 0.000520783C9.19833 0.0651266 7.93728 1.4257 8.00189 3.04442C8.00189 3.03864 8.00189 3.05019 8.00189 3.06201C8.18966 7.85961 8.23639 12.5574 8.27763 17.0969C8.4654 37.0436 -7.21671 95.8817 4.99984 105.5C19.8028 117.142 57.7654 149 75.4481 149C93.1309 149 132.191 117.142 147 105.5C160.29 95.0372 143.159 34.0112 142.948 11.5311Z" fill="#886e5b"/>
<path d="M34.6491 52.4234C37.6812 52.4234 51.1832 40.6334 55.5 38C61.2535 34.4868 62.9385 29.2194 70.3753 29.2194C70.9854 29.2194 71.607 29.2488 72.5219 29.3307C73.513 29.3307 74.4867 29.143 75.4602 28.7559C76.4574 29.1372 77.2197 29.3659 78.6859 29.3131C86.797 28.4628 88.2715 34.1995 94.5 38C98.8165 40.6334 114.468 50.8107 117.5 50.8107C119.072 50.8107 120.45 50.2535 121.506 49.2038C122.626 48.0835 123.048 46.5118 122.649 44.8931C120.767 37.1338 89.4599 14.9324 82.1757 12.6393C81.812 12.4634 81.4425 12.346 80.8327 12.1761C79.9705 11.9298 79.2082 11.789 78.3928 11.7305C77.4017 11.7305 76.4279 11.9182 75.4545 12.3053C74.4692 11.924 73.472 11.7599 72.305 11.7423C71.7068 11.7893 70.962 11.9358 69.8651 12.2349C69.478 12.3405 69.1028 12.4637 69.1379 12.4755C61.449 14.9269 31.3886 38.7407 29.4999 46.5C29.1128 48.1187 29.5293 49.6904 30.6493 50.8107C31.6993 51.8664 33.0774 52.4234 34.6491 52.4234Z" fill="#886e5b"/>
</svg>
