<svg width="155" height="203" viewBox="0 0 155 203" fill="none" xmlns="http://www.w3.org/2000/svg">
<path d="M143.948 11.5311C143.925 8.71021 143.895 5.83621 143.895 2.93307C143.895 1.31436 142.582 0.000520783 140.963 0.000520783C139.344 0.000520783 138.03 1.31436 138.03 2.93307C138.03 47.5358 113.621 53.2599 92.3544 53.2599C90.8706 53.2599 89.4161 53.2365 88.0085 53.1895C87.0465 46.3042 82.2316 41.0549 76.4487 41.0549C70.7304 41.0549 65.9564 46.1983 64.9417 53.1895C63.4871 53.2365 61.9916 53.2657 60.4726 53.2657C38.9072 53.2657 16.6207 47.2716 14.8612 2.81568C14.7966 1.19119 13.389 -0.0288955 11.8173 0.000520783C10.1989 0.0651266 8.93784 1.4257 9.00244 3.04442C9.00244 3.03864 9.00244 3.05019 9.00244 3.06201C9.19021 7.85961 9.23695 12.5574 9.27818 17.0969C9.46595 37.0436 -6.71649 155.882 5.50005 165.5C11.083 194.5 58.766 203 76.4487 203C94.1315 203 144.082 193.5 150 165.5C163.29 155.037 144.159 34.0112 143.948 11.5311Z" fill="#886e5b"/>
<path d="M38.0005 53.7096C41.0326 53.7096 49.1837 41.6334 53.5005 39C59.254 35.4868 63.939 29.2194 71.3758 29.2194C71.9859 29.2194 72.6075 29.2488 73.5224 29.3307C74.5135 29.3307 75.4872 29.143 76.4607 28.7559C77.4579 29.1372 78.2202 29.3659 79.6863 29.3131C87.7975 28.4628 103.772 45.1995 110 49C114.317 51.6334 117.73 53.7096 120.763 53.7096C122.334 53.7096 123.713 53.1524 124.769 52.1027C125.889 50.9824 126.311 49.4107 125.912 47.792C124.03 40.0327 90.4604 14.9324 83.1762 12.6393C82.8124 12.4634 82.4429 12.346 81.8332 12.1761C80.971 11.9298 80.2087 11.789 79.3933 11.7305C78.4022 11.7305 77.4284 11.9182 76.455 12.3053C75.4696 11.924 74.4725 11.7599 73.3055 11.7423C72.7073 11.7893 71.9625 11.9358 70.8656 12.2349C70.4785 12.3405 70.1032 12.4637 70.1384 12.4755C62.4495 14.9269 32.3891 38.7407 30.5004 46.5C30.1133 48.1187 30.5298 49.6904 31.6498 50.8107C32.6998 51.8664 36.4288 53.7096 38.0005 53.7096Z" fill="#886e5b"/>
</svg>
