<svg width="135" height="219" viewBox="0 0 135 219" fill="none" xmlns="http://www.w3.org/2000/svg">
<path d="M134.948 11.5311C134.924 8.71021 134.895 5.83621 134.895 2.93307C134.895 1.31436 133.581 0.000520783 131.962 0.000520783C130.344 0.000520783 129.03 1.31436 129.03 2.93307C129.03 47.5358 104.62 53.2599 83.3538 53.2599C81.8701 53.2599 80.4155 53.2365 79.0079 53.1895C78.046 46.3042 73.2311 41.0549 67.4482 41.0549C61.7299 41.0549 56.9559 46.1983 55.9411 53.1895C54.4866 53.2365 52.991 53.2657 51.4721 53.2657C29.9067 53.2657 7.62014 47.2716 5.86067 2.81568C5.79606 1.19119 4.38848 -0.0288955 2.81678 0.000520783C1.19833 0.0651266 -0.0627185 1.4257 0.00188734 3.04442C0.00188734 3.03864 0.00188734 3.05019 0.00188734 3.06201C0.189657 7.85961 0.236393 12.5574 0.277631 17.0969C0.4654 37.0436 15.2835 174.882 27.5 184.5C40.5 204 49.7659 219 67.4486 219C85.1314 219 98.5 200.5 109.5 184.5C122.79 174.037 135.159 34.0112 134.948 11.5311Z" fill="#886e5b"/>
<path d="M29 53.7096C32.0321 53.7096 40.1832 41.6334 44.5 39C50.2535 35.4868 54.9385 29.2194 62.3753 29.2194C62.9854 29.2194 63.607 29.2488 64.5219 29.3307C65.513 29.3307 66.4867 29.143 67.4602 28.7559C68.4574 29.1372 69.2197 29.3659 70.6859 29.3131C78.797 28.4628 94.7715 45.1995 101 49C105.316 51.6334 108.73 53.7096 111.762 53.7096C113.334 53.7096 114.712 53.1524 115.768 52.1027C116.888 50.9824 117.311 49.4107 116.912 47.792C115.029 40.0327 81.4599 14.9324 74.1757 12.6393C73.812 12.4634 73.4425 12.346 72.8327 12.1761C71.9705 11.9298 71.2082 11.789 70.3928 11.7305C69.4017 11.7305 68.4279 11.9182 67.4545 12.3053C66.4692 11.924 65.472 11.7599 64.305 11.7423C63.7068 11.7893 62.962 11.9358 61.8651 12.2349C61.478 12.3405 61.1028 12.4637 61.1379 12.4755C53.449 14.9269 23.3886 38.7407 21.4999 46.5C21.1128 48.1187 21.5293 49.6904 22.6493 50.8107C23.6993 51.8664 27.4283 53.7096 29 53.7096Z" fill="#886e5b"/>
</svg>
