<svg width="168" height="176" viewBox="0 0 168 176" fill="none" xmlns="http://www.w3.org/2000/svg">
<path d="M153 28C152.976 25.1791 148.894 5.83621 148.894 2.93307C148.894 1.31436 147.581 0.000520783 145.962 0.000520783C144.343 0.000520783 143.029 1.31436 143.029 2.93307C143.029 47.5358 118.62 53.2599 97.3534 53.2599C95.8696 53.2599 94.415 53.2365 93.0075 53.1895C92.0455 46.3042 87.2306 41.0549 81.4477 41.0549C75.7294 41.0549 70.9554 46.1983 69.9407 53.1895C68.4861 53.2365 66.9906 53.2657 65.4717 53.2657C43.9062 53.2657 21.6197 47.2716 19.8602 2.81568C19.7956 1.19119 18.388 -0.0288955 16.8163 0.000520783C15.1979 0.0651266 13.9368 1.4257 14.0015 3.04442C14.0015 3.03864 14.0015 3.05019 14.0015 3.06201C14.1892 7.85961 10.9584 23.4605 10.9996 28C11.0873 37.3142 2.11479 71.2313 0.500048 86C-1.34323 102.859 21.488 121.373 28 126.5C28 176 63.765 176 81.4477 176C99.1304 176 143.029 176 140.5 126.5C147.687 120.842 169.03 102.715 167 86C165.276 71.8042 153.097 38.324 153 28Z" fill="#886e5b"/>
<path d="M49 55.5C52.0321 55.5 58.6832 42.1334 63 39.5C68.7535 35.9868 68.9383 29.2194 76.3751 29.2194C76.9851 29.2194 77.6067 29.2488 78.5217 29.3307C79.5127 29.3307 80.4865 29.143 81.46 28.7559C82.4571 29.1372 83.2195 29.3659 84.6856 29.3131C92.7968 28.4628 94.2715 35.6995 100.5 39.5C104.816 42.1334 114.968 55.5 118 55.5C119.572 55.5 126.45 50.2535 127.506 49.2038C128.626 48.0835 129.048 46.5118 128.649 44.8931C126.767 37.1338 95.4597 14.9324 88.1754 12.6393C87.8117 12.4634 87.4422 12.346 86.8324 12.1761C85.9703 11.9298 85.208 11.789 84.3925 11.7305C83.4015 11.7305 82.4277 11.9182 81.4542 12.3053C80.4689 11.924 79.4718 11.7599 78.3048 11.7423C77.7065 11.7893 76.9618 11.9358 75.8649 12.2349C75.4778 12.3405 75.1025 12.4637 75.1377 12.4755C67.4488 14.9269 37.3884 38.7407 35.4997 46.5C35.1126 48.1187 35.5291 49.6904 36.6491 50.8107C37.699 51.8664 47.4283 55.5 49 55.5Z" fill="#886e5b"/>
</svg>
