<svg width="209" height="209" viewBox="0 0 209 209" fill="none" xmlns="http://www.w3.org/2000/svg">
<path d="M135 171.314C160.953 159.518 179 133.366 179 103C179 61.5786 145.421 28 104 28C62.5786 28 29 61.5786 29 103C29 133.366 47.0467 159.518 73 171.314" stroke="#826550" stroke-width="7" stroke-linecap="round" stroke-linejoin="round"/>
<path fill-rule="evenodd" clip-rule="evenodd" d="M122.08 77.3043V163.34H122.349C124.416 163.34 126.107 165.027 126.107 167.089C126.107 169.151 124.416 170.838 122.349 170.838H121.752C120.335 172.327 119.027 173.519 117.264 174.58C115.715 175.454 114.125 176.121 112.432 176.664C110.817 177.142 109.199 177.487 107.53 177.714L107.533 177.776C107.546 178.525 107.382 179.198 107.04 179.863C106.701 180.452 106.286 180.908 105.731 181.301C105.019 181.756 104.288 181.978 103.442 182C102.948 181.987 102.502 181.91 102.034 181.752C101.334 181.477 100.775 181.081 100.283 180.514C99.6495 179.71 99.3335 178.805 99.3501 177.78L99.3519 177.742L99.2404 177.729C97.5323 177.497 95.8805 177.153 94.2274 176.664C92.3547 176.063 90.6079 175.31 88.9221 174.295C87.3636 173.293 86.1855 172.181 84.9078 170.838H84.7579C82.691 170.838 81 169.151 81 167.089C81 165.027 82.691 163.34 84.7579 163.34H84.8039V77.3043H84.7579C82.691 77.3043 81 75.6173 81 73.5553C81 71.4932 82.691 69.8062 84.7579 69.8062H84.8935C83.2169 66.6933 82.374 63.3455 82.3423 59.8133C82.4422 55.8751 83.3975 52.4423 85.3659 49.0271C87.238 46.1136 89.4723 43.8847 92.3928 42.0167C95.8218 40.0497 99.2642 39.0997 103.218 39C107.529 39.1087 111.26 40.2367 114.89 42.5585C118.009 44.7721 120.289 47.3982 122.034 50.7975C123.366 53.7354 124.012 56.5898 124.094 59.8133C124.076 61.7834 123.813 63.6858 123.284 65.5843C122.848 67.0476 122.267 68.4612 121.542 69.8062H122.349C124.416 69.8062 126.107 71.4932 126.107 73.5553C126.107 75.6173 124.416 77.3043 122.349 77.3043L122.08 77.3043ZM108.448 161.842L120 156.804V144.75L86.8833 159.191V161.842H108.448ZM86.8829 140.217L119.999 125.776V113.052L86.8829 127.493V140.217ZM86.8829 108.519L119.999 94.0777V79.5678L86.8829 94.0089V108.519Z" fill="#826550"/>
</svg>
