<svg width="220" height="220" viewBox="0 0 220 220" fill="none" xmlns="http://www.w3.org/2000/svg">
<path d="M153.502 171.095C186.659 147.486 194.84 101.855 172.315 68.2629M48.9049 153.502C24.8797 119.76 32.7567 72.9301 66.4986 48.9049C91.279 31.2605 123.118 30.8228 147.799 45.2005" stroke="#826550" stroke-width="7" stroke-linecap="round" stroke-linejoin="round"/>
<path d="M153.861 50.1835C147.006 51.4136 141.163 56.8357 137.216 65.673C134.662 71.3963 132.486 79.6048 130.816 89.7219L130.614 90.9769L118.725 91.1276C112.047 91.2022 106.052 91.404 105.066 91.5546C97.1485 92.8096 91.9121 96.099 89.3064 101.496C88.0167 104.132 87.4848 106.191 87.3079 109.354L87.1574 111.938H85.4876C84.5768 111.938 82.4015 112.089 80.6564 112.289C73.0928 113.143 69.2727 114.976 67.4525 118.665C66.6935 120.172 66.6182 120.599 66.5417 122.983C66.3899 127.35 67.3759 131.217 69.451 134.33C71.4745 137.368 74.0802 139.125 77.4449 139.653L79.1398 139.904V140.808C79.1398 141.963 78.5325 145.377 78.0019 147.184C75.548 155.518 69.7031 158.547 59.9892 160.204C58.3709 160.481 55.1065 160.631 48.9857 160.732L39.6005 163.226L38.8164 163.903C37.7538 164.857 37.7287 166.339 38.7398 167.342L39.4487 168.046L52.4878 168.648C61.4176 168.623 62.2017 168.598 64.6807 168.046C73.1036 166.238 75.5718 161.945 79.4671 156.071C81.9711 152.28 83.3875 148.364 84.1214 142.992L84.5518 139.803H94.8728H105.194V151.702V163.576L103.549 163.751C97.9088 164.329 90.2185 166.839 86.4235 169.324C83.439 171.307 82.4015 172.889 81.8444 176.304L81.4907 178.463H113.035H144.577L144.224 176.378C143.793 173.817 143.541 173.165 142.352 171.683C139.594 168.245 132.902 167.16 124.681 166.232L120.825 165.232L120.877 151.702V139.803H128.921H136.94L138.458 139.1C141.089 137.845 142.986 135.108 143.669 131.519C143.846 130.615 149.083 115.377 155.28 97.6291C161.5 79.8812 166.711 64.8437 166.863 64.2162C168.431 57.9911 166.206 52.493 161.4 50.6603C159.755 50.0329 156.011 49.8062 153.861 50.1835ZM129.881 96.8012C129.325 99.5129 128.92 109.88 129.198 114.072C129.325 116.006 129.4 117.612 129.35 117.662C129.325 117.687 128.06 117.385 126.542 116.984C117.689 114.549 101.651 111.938 95.4536 111.938C92.5443 111.938 92.2922 111.837 92.2922 110.683C92.2922 108.951 93.0763 105.562 93.8604 103.93C95.6054 100.265 98.9199 98.0562 104.155 97.0016C107.216 96.3741 110.733 96.1986 120.825 96.1475L130.032 96.1226L129.881 96.8012Z" fill="#826550"/>
</svg>
