<svg width="138" height="96" viewBox="0 0 138 96" fill="none" xmlns="http://www.w3.org/2000/svg">
<path d="M136.947 11.5311C136.924 8.71021 136.895 5.83621 136.895 2.93307C136.895 1.31436 135.581 0.000520783 133.962 0.000520783C132.343 0.000520783 131.03 1.31436 131.03 2.93307C131.03 47.5358 106.62 53.2599 85.3536 53.2599C83.8699 53.2599 82.4153 53.2365 81.0077 53.1895C80.0457 46.3042 75.2308 41.0549 69.4479 41.0549C63.7296 41.0549 58.9556 46.1983 57.9409 53.1895C56.4863 53.2365 54.9908 53.2657 53.4718 53.2657C31.9064 53.2657 9.6199 47.2716 7.86042 2.81568C7.79582 1.19119 6.38824 -0.0288955 4.81653 0.000520783C3.19809 0.0651266 1.93704 1.4257 2.00164 3.04442C2.00164 3.03864 2.00164 3.05019 2.00164 3.06201C2.18941 7.85961 2.23615 12.5574 2.27739 17.0969C2.46516 37.0436 -3.63937 67.2105 7.86063 77.5C23 91.0457 51.7652 96 69.4479 96C87.1307 96 120.91 88.5 131.03 77.5C141.15 66.5 137.159 34.0112 136.947 11.5311Z" fill="#886e5b"/>
<path d="M30.9998 53.7096C34.0318 53.7096 42.183 41.6334 46.4998 39C52.2532 35.4868 56.9383 29.2194 64.3751 29.2194C64.9851 29.2194 65.6067 29.2488 66.5217 29.3307C67.5127 29.3307 68.4865 29.143 69.46 28.7559C70.4571 29.1372 71.2195 29.3659 72.6856 29.3131C80.7968 28.4628 96.7712 45.1995 103 49C107.316 51.6334 110.73 53.7096 113.762 53.7096C115.334 53.7096 116.712 53.1524 117.768 52.1027C118.888 50.9824 119.31 49.4107 118.911 47.792C117.029 40.0327 83.4597 14.9324 76.1754 12.6393C75.8117 12.4634 75.4422 12.346 74.8324 12.1761C73.9703 11.9298 73.208 11.789 72.3925 11.7305C71.4015 11.7305 70.4277 11.9182 69.4542 12.3053C68.4689 11.924 67.4718 11.7599 66.3048 11.7423C65.7065 11.7893 64.9618 11.9358 63.8649 12.2349C63.4778 12.3405 63.1025 12.4637 63.1377 12.4755C55.4488 14.9269 25.3884 38.7407 23.4997 46.5C23.1126 48.1187 23.5291 49.6904 24.6491 50.8107C25.699 51.8664 29.428 53.7096 30.9998 53.7096Z" fill="#886e5b"/>
</svg>
